<?xml version="1.0" encoding="utf-8"?>
<!-- Generator: Adobe Illustrator 25.4.1, SVG Export Plug-In . SVG Version: 6.00 Build 0)  -->
<svg version="1.1" id="Layer_1" xmlns="http://www.w3.org/2000/svg" xmlns:xlink="http://www.w3.org/1999/xlink" x="0px" y="0px"
	 viewBox="0 0 26 26" style="enable-background:new 0 0 26 26;" xml:space="preserve">
<style type="text/css">
	.st0{fill:#FFFFFF;}
	.st1{fill:#C6C6C6;}
	.st2{fill:#2FCD7C;}
</style>
<g>
	<g>
		<path class="st0" d="M13,25.3C6.2,25.3,0.6,19.8,0.6,13C0.6,6.2,6.2,0.6,13,0.6c6.8,0,12.3,5.5,12.3,12.4
			C25.3,19.8,19.8,25.3,13,25.3z"/>
		<path class="st1" d="M13,0.9c6.7,0,12.1,5.4,12.1,12.1S19.7,25.1,13,25.1S0.9,19.7,0.9,13S6.3,0.9,13,0.9 M13,0.4
			C6,0.4,0.4,6,0.4,13S6,25.6,13,25.6S25.6,20,25.6,13S20,0.4,13,0.4L13,0.4z"/>
	</g>
	<polygon class="st2" points="11.1,9.8 11.1,12.1 20.5,12.1 20.5,13.9 11.1,13.9 11,16.2 5.5,13 	"/>
</g>
</svg>
